<svg width="54" height="54" viewBox="0 0 54 54" fill="none" xmlns="http://www.w3.org/2000/svg">
<g filter="url(#filter0_d_468_3347)">
<circle cx="27" cy="23" r="23" fill="#F8F4F4"/>
</g>
<path d="M24.3333 33.3333H29.6667C29.6667 34.8 28.4667 36 27 36C25.5333 36 24.3333 34.8 24.3333 33.3333ZM39 30.6667V32H15V30.6667L17.6667 28V20C17.6667 15.8667 20.3333 12.2667 24.3333 11.0667V10.6667C24.3333 9.2 25.5333 8 27 8C28.4667 8 29.6667 9.2 29.6667 10.6667V11.0667C33.6667 12.2667 36.3333 15.8667 36.3333 20V28L39 30.6667ZM33.6667 20C33.6667 16.2667 30.7333 13.3333 27 13.3333C23.2667 13.3333 20.3333 16.2667 20.3333 20V29.3333H33.6667V20Z" fill="black" fill-opacity="0.270588"/>
<defs>
<filter id="filter0_d_468_3347" x="0" y="0" width="54" height="54" filterUnits="userSpaceOnUse" color-interpolation-filters="sRGB">
<feFlood flood-opacity="0" result="BackgroundImageFix"/>
<feColorMatrix in="SourceAlpha" type="matrix" values="0 0 0 0 0 0 0 0 0 0 0 0 0 0 0 0 0 0 127 0" result="hardAlpha"/>
<feOffset dy="4"/>
<feGaussianBlur stdDeviation="2"/>
<feComposite in2="hardAlpha" operator="out"/>
<feColorMatrix type="matrix" values="0 0 0 0 0 0 0 0 0 0 0 0 0 0 0 0 0 0 0.25 0"/>
<feBlend mode="normal" in2="BackgroundImageFix" result="effect1_dropShadow_468_3347"/>
<feBlend mode="normal" in="SourceGraphic" in2="effect1_dropShadow_468_3347" result="shape"/>
</filter>
</defs>
</svg>
