<svg width="27" height="27" viewBox="0 0 27 27" fill="none" xmlns="http://www.w3.org/2000/svg">
<path d="M9.33333 1H2.38889C2.02053 1 1.66726 1.14633 1.4068 1.4068C1.14633 1.66726 1 2.02053 1 2.38889V9.33333C1 9.70169 1.14633 10.055 1.4068 10.3154C1.66726 10.5759 2.02053 10.7222 2.38889 10.7222H9.33333C9.70169 10.7222 10.055 10.5759 10.3154 10.3154C10.5759 10.055 10.7222 9.70169 10.7222 9.33333V2.38889C10.7222 2.02053 10.5759 1.66726 10.3154 1.4068C10.055 1.14633 9.70169 1 9.33333 1ZM9.33333 16.2778H2.38889C2.02053 16.2778 1.66726 16.4241 1.4068 16.6846C1.14633 16.945 1 17.2983 1 17.6667V24.6111C1 24.9795 1.14633 25.3327 1.4068 25.5932C1.66726 25.8537 2.02053 26 2.38889 26H9.33333C9.70169 26 10.055 25.8537 10.3154 25.5932C10.5759 25.3327 10.7222 24.9795 10.7222 24.6111V17.6667C10.7222 17.2983 10.5759 16.945 10.3154 16.6846C10.055 16.4241 9.70169 16.2778 9.33333 16.2778ZM24.6111 1H17.6667C17.2983 1 16.945 1.14633 16.6846 1.4068C16.4241 1.66726 16.2778 2.02053 16.2778 2.38889V9.33333C16.2778 9.70169 16.4241 10.055 16.6846 10.3154C16.945 10.5759 17.2983 10.7222 17.6667 10.7222H24.6111C24.9795 10.7222 25.3327 10.5759 25.5932 10.3154C25.8537 10.055 26 9.70169 26 9.33333V2.38889C26 2.02053 25.8537 1.66726 25.5932 1.4068C25.3327 1.14633 24.9795 1 24.6111 1ZM24.6111 16.2778H17.6667C17.2983 16.2778 16.945 16.4241 16.6846 16.6846C16.4241 16.945 16.2778 17.2983 16.2778 17.6667V24.6111C16.2778 24.9795 16.4241 25.3327 16.6846 25.5932C16.945 25.8537 17.2983 26 17.6667 26H24.6111C24.9795 26 25.3327 25.8537 25.5932 25.5932C25.8537 25.3327 26 24.9795 26 24.6111V17.6667C26 17.2983 25.8537 16.945 25.5932 16.6846C25.3327 16.4241 24.9795 16.2778 24.6111 16.2778Z" stroke="white" stroke-width="2" stroke-linejoin="round"/>
</svg>
