<svg width="36" height="36" viewBox="0 0 36 36" fill="none" xmlns="http://www.w3.org/2000/svg">
<path d="M15.2916 22.5018V35.9982H9.90127V22.5018H15.2916ZM27.4582 19.8018H21.1571C20.7991 19.8018 20.4558 19.944 20.2027 20.1972C19.9495 20.4504 19.8073 20.7938 19.8073 21.1518V27.4554C19.8073 28.2006 20.4102 28.8054 21.1571 28.8054H27.4582C27.8162 28.8054 28.1595 28.6632 28.4127 28.41C28.6658 28.1568 28.808 27.8134 28.808 27.4554V21.1518C28.808 20.7938 28.6658 20.4504 28.4127 20.1972C28.1595 19.944 27.8162 19.8018 27.4582 19.8018ZM26.1084 22.5018V26.1054H22.5052V22.5018H26.1084ZM11.0981 9.0036H2.70391V11.1006C2.70391 13.2246 4.28413 14.9832 6.33409 15.2604L6.61485 15.2892L6.90282 15.2982C7.96656 15.2984 8.99069 14.8946 9.76815 14.1685C10.5456 13.4424 11.0184 12.4482 11.0909 11.3868L11.1017 11.0988L11.0981 9.0036ZM22.1938 9.0036H13.7996V11.1006C13.7996 13.2246 15.3798 14.9832 17.4298 15.2604L17.7106 15.2892L17.9985 15.2982C19.0623 15.2984 20.0864 14.8946 20.8638 14.1685C21.6413 13.4424 22.1141 12.4482 22.1866 11.3868L22.1974 11.0988L22.1938 9.0036ZM33.2931 9.0036H24.8971L24.8989 11.1006C24.8989 13.2246 26.4791 14.9832 28.5273 15.2604L28.8098 15.2892L29.0978 15.2982C30.1614 15.298 31.1853 14.8941 31.9627 14.168C32.7401 13.442 33.213 12.448 33.2859 11.3868L33.2949 11.0988L33.2931 9.0036ZM12.7107 2.7H7.78832L4.44791 6.3036H11.6057L12.7107 2.7ZM20.4642 2.7H15.5364L14.4277 6.3036H21.5729L20.4642 2.7ZM28.2105 2.7H23.2917L24.3986 6.3036H31.5545L28.2105 2.7ZM0.365988 6.7356L6.2117 0.432001C6.42299 0.203923 6.70653 0.0557807 7.01441 0.0126006L7.20158 6.26465e-07H28.799C29.1106 -0.000299401 29.4126 0.107176 29.6539 0.3042L29.7889 0.430201L35.6796 6.7842L35.7336 6.8526C35.9172 7.0974 36 7.3746 36 7.6446L35.9964 11.1006C35.9964 12.8898 35.3161 14.5206 34.1966 15.7446V34.65C34.1966 34.9762 34.0785 35.2914 33.8641 35.5373C33.6497 35.7831 33.3535 35.943 33.0303 35.9874L32.8468 36L17.9931 35.9982V21.1518C17.9931 20.7938 17.8509 20.4504 17.5978 20.1972C17.3446 19.944 17.0013 19.8018 16.6433 19.8018H8.55143C8.19343 19.8018 7.85009 19.944 7.59694 20.1972C7.3438 20.4504 7.20158 20.7938 7.20158 21.1518V35.9982L3.15566 36C2.82916 36.0004 2.51357 35.8825 2.26737 35.668C2.02116 35.4535 1.86102 35.1571 1.81662 34.8336L1.80582 34.65L1.80222 15.7464C0.724868 14.5676 0.0916712 13.0503 0.0114298 11.4552L0.00243062 11.1006V7.722C-0.013208 7.46555 0.0468759 7.21017 0.17521 6.9876L0.2652 6.8508L0.365988 6.7356Z" fill="white"/>
</svg>
