<svg width="25" height="23" viewBox="0 0 25 23" fill="none" xmlns="http://www.w3.org/2000/svg">
<path d="M22.8334 13.8334H22.8336C23.2266 13.8338 23.6045 13.9843 23.8903 14.254C24.176 14.5237 24.3479 14.8924 24.371 15.2847C24.394 15.6769 24.2664 16.0632 24.0142 16.3645C23.762 16.6658 23.4042 16.8595 23.014 16.9059L23.0067 16.9068L22.9994 16.9072L22.8483 16.9162L22.8408 16.9167H22.8334H5.88834L8.42335 19.4517L8.42365 19.452C8.70015 19.7294 8.86067 20.1017 8.87263 20.4932C8.88458 20.8847 8.74707 21.2661 8.48802 21.5599C8.22897 21.8537 7.8678 22.0379 7.47788 22.075C7.08796 22.1121 6.69852 21.9995 6.38865 21.7599L6.38221 21.7549L6.3761 21.7495L6.25469 21.6423L6.24887 21.6372L6.24338 21.6317L1.29643 16.6847L22.8334 13.8334ZM22.8334 13.8334H2.47799V13.833L2.46497 13.8337L2.31643 13.8414L2.31641 13.8412M22.8334 13.8334L2.31641 13.8412M2.31641 13.8412L2.30518 13.8423M2.31641 13.8412L2.30518 13.8423M2.30518 13.8423C0.934221 13.976 0.284941 15.6746 1.2963 16.6846L2.30518 13.8423ZM16.5767 1.3684L16.5767 1.36836C16.8422 1.10293 17.1954 0.943469 17.5701 0.91991C17.9447 0.896352 18.3151 1.01031 18.6117 1.24041L18.618 1.24528L18.624 1.25054L18.7454 1.35775L18.7512 1.36289L18.7567 1.36837L23.7036 6.31532L16.5767 1.3684ZM16.5767 1.3684C16.2877 1.6575 16.1253 2.04956 16.1253 2.45836C16.1253 2.86715 16.2877 3.25921 16.5767 3.54832L16.5767 3.54834L19.1117 6.08336H2.1667H2.15923L2.15177 6.0838L2.00064 6.09285L1.99333 6.09328L1.98605 6.09415C1.59586 6.14056 1.23812 6.33421 0.985915 6.63553C0.733713 6.93686 0.606088 7.32311 0.629116 7.71537C0.652144 8.10764 0.824087 8.47631 1.10981 8.74605C1.39554 9.01579 1.77348 9.16625 2.16642 9.16669H2.1667H22.5221V9.16703L22.5351 9.16635L22.6836 9.1586L22.6837 9.15886M16.5767 1.3684L22.6837 9.15886M22.6837 9.15886L22.6949 9.15776M22.6837 9.15886L22.6949 9.15776M22.6949 9.15776C24.0658 9.02401 24.7151 7.3255 23.7038 6.31546L22.6949 9.15776Z" fill="white" stroke="white" stroke-width="0.5"/>
</svg>
