<svg width="31" height="31" viewBox="0 0 31 31" fill="none" xmlns="http://www.w3.org/2000/svg">
<path d="M25.8334 18.0833C26.1626 18.0837 26.4792 18.2097 26.7186 18.4357C26.958 18.6617 27.1021 18.9706 27.1214 19.2993C27.1407 19.6279 27.0337 19.9516 26.8224 20.204C26.6111 20.4565 26.3114 20.6187 25.9845 20.6576L25.8334 20.6666H8.28478L11.2466 23.6284C11.4782 23.8609 11.6127 24.1728 11.6227 24.5008C11.6328 24.8288 11.5175 25.1484 11.3005 25.3945C11.0835 25.6407 10.7809 25.795 10.4542 25.8261C10.1275 25.8572 9.80119 25.7628 9.54158 25.5621L9.42016 25.4549L4.47308 20.5078C3.61412 19.6501 4.16437 18.2047 5.32945 18.0911L5.47799 18.0833H25.8334ZM19.7535 5.5451C19.9759 5.32271 20.2718 5.18911 20.5857 5.16937C20.8996 5.14963 21.21 5.24511 21.4585 5.4379L21.5799 5.5451L26.527 10.4922C27.386 11.3499 26.8357 12.7952 25.6706 12.9089L25.5221 12.9166H5.1667C4.83748 12.9163 4.52083 12.7902 4.28143 12.5642C4.04204 12.3382 3.89798 12.0293 3.87869 11.7007C3.85939 11.372 3.96632 11.0484 4.17763 10.7959C4.38893 10.5435 4.68866 10.3812 5.01558 10.3424L5.1667 10.3333H22.7153L19.7535 7.37152C19.5113 7.1293 19.3753 6.80082 19.3753 6.45831C19.3753 6.11581 19.5113 5.78733 19.7535 5.5451Z" fill="white"/>
</svg>
