<svg width="483" height="455" viewBox="0 0 483 455" fill="none" xmlns="http://www.w3.org/2000/svg">
<path d="M471.804 0L264.554 154.091L303.094 63.281L471.804 0Z" fill="#E17726"/>
<path d="M11.6807 0.182007L179.94 63.2924L216.535 155.293L11.6807 0.182007ZM388.4 327.71L480.002 329.462L447.988 438.741L336.213 407.818L388.4 327.71ZM94.5982 327.71L146.591 407.818L35.0043 438.743L3.18481 329.462L94.5982 327.71Z" fill="#E27625"/>
<path d="M211.56 131.859L215.303 253.35L103.287 248.229L135.15 199.927L135.553 199.462L211.56 131.859ZM270.28 130.503L347.447 199.466L347.847 199.929L379.71 248.231L267.718 253.35L270.28 130.503ZM149.872 328.063L211.035 375.949L139.985 410.418L149.872 328.063ZM333.14 328.055L342.821 410.419L271.969 375.946L333.14 328.055Z" fill="#E27625"/>
<path d="M273.533 371.435L345.43 406.417L278.551 438.355L279.246 417.246L273.533 371.435ZM209.446 371.451L203.958 416.901L204.409 438.33L137.374 406.417L209.446 371.451Z" fill="#D5BFB2"/>
<path d="M188.685 269.206L207.473 308.882L143.508 290.053L188.685 269.206ZM294.313 269.21L339.704 290.053L275.529 308.877L294.313 269.21Z" fill="#233447"/>
<path d="M154.76 327.657L144.421 413.045L89.0022 329.524L154.76 327.657ZM328.244 327.659L394.003 329.524L338.377 413.049L328.244 327.659ZM381.328 243.4L333.472 292.41L296.573 275.467L278.908 312.784L267.327 248.612L381.328 243.4ZM101.647 243.4L215.671 248.612L204.088 312.784L186.419 275.472L149.717 292.411L101.647 243.4Z" fill="#CC6228"/>
<path d="M98.4226 233.343L152.568 288.552L154.443 343.055L98.4226 233.343ZM384.632 233.244L328.51 343.152L330.623 288.552L384.632 233.244ZM213.024 236.706L215.203 250.489L220.588 284.824L217.126 390.28L200.758 305.565L200.753 304.689L213.024 236.706ZM269.948 236.515L282.251 304.689L282.246 305.565L265.837 390.492L265.188 369.25L262.628 284.199L269.948 236.515Z" fill="#E27525"/>
<path d="M335.436 286.358L333.604 333.712L276.485 378.429L264.939 370.232L277.882 303.242L335.436 286.358ZM147.762 286.358L205.117 303.242L218.059 370.232L206.513 378.429L149.392 333.708L147.762 286.358Z" fill="#F5841F"/>
<path d="M126.444 395.96L199.52 430.752L199.211 415.895L205.326 410.501H277.651L283.987 415.876L283.519 430.722L356.133 396.047L320.799 425.387L278.074 454.873H204.739L162.043 425.266L126.444 395.96Z" fill="#C0AC9D"/>
<path d="M268.299 366.804L278.631 374.139L284.685 422.68L275.923 415.246H207.103L198.507 422.83L204.364 374.143L214.699 366.804H268.299Z" fill="#161616"/>
<path d="M458.122 4.26562L483 79.2591L467.463 155.087L478.527 163.662L463.555 175.139L474.808 183.871L459.908 197.504L469.055 204.16L444.781 232.647L345.219 203.518L344.356 203.053L272.61 142.239L458.122 4.26562ZM24.8783 4.26562L210.392 142.239L138.644 203.053L137.781 203.518L38.2193 232.647L13.9447 204.16L23.084 197.51L8.19402 183.871L19.4238 175.148L4.22814 163.639L15.7088 155.058L0 79.2629L24.8783 4.26562Z" fill="#763E1A"/>
<path d="M340.349 197.148L445.841 228.01L480.113 334.15H389.694L327.395 334.939L372.702 246.199L340.349 197.148ZM142.651 197.148L110.292 246.199L155.605 334.939L93.334 334.15H3.07715L37.1569 228.012L142.651 197.148ZM308.26 62.7748L278.753 142.853L272.491 251.029L270.095 284.936L269.904 371.553H213.093L212.909 285.099L210.505 251.001L204.241 142.853L174.738 62.7748H308.26Z" fill="#F5841F"/>
</svg>
