<svg width="36" height="36" viewBox="0 0 36 36" fill="none" xmlns="http://www.w3.org/2000/svg">
<path d="M15 12V9C15 8.20435 15.3161 7.44129 15.8787 6.87868C16.4413 6.31607 17.2044 6 18 6H28.5C29.2956 6 30.0587 6.31607 30.6213 6.87868C31.1839 7.44129 31.5 8.20435 31.5 9V27C31.5 27.7956 31.1839 28.5587 30.6213 29.1213C30.0587 29.6839 29.2956 30 28.5 30H18C17.2044 30 16.4413 29.6839 15.8787 29.1213C15.3161 28.5587 15 27.7956 15 27V24" stroke="white" stroke-width="2" stroke-linecap="round" stroke-linejoin="round"/>
<path d="M22.5 18H4.5M4.5 18L9 13.5M4.5 18L9 22.5" stroke="white" stroke-width="2" stroke-linecap="round" stroke-linejoin="round"/>
</svg>
