<svg width="36" height="36" viewBox="0 0 36 36" fill="none" xmlns="http://www.w3.org/2000/svg">
<path d="M20.25 21.375V28.125C20.25 28.4234 20.3685 28.7095 20.5795 28.9205C20.7905 29.1315 21.0766 29.25 21.375 29.25H28.125C28.4234 29.25 28.7095 29.1315 28.9205 28.9205C29.1315 28.7095 29.25 28.4234 29.25 28.125V21.375C29.25 21.0766 29.1315 20.7905 28.9205 20.5795C28.7095 20.3685 28.4234 20.25 28.125 20.25H21.375C21.0766 20.25 20.7905 20.3685 20.5795 20.5795C20.3685 20.7905 20.25 21.0766 20.25 21.375ZM22.5 27V22.5H27V27H22.5ZM6.75 0C6.5851 6.18302e-05 6.42224 0.0363717 6.27293 0.106359C6.12363 0.176346 5.99153 0.278299 5.886 0.405L0.261 7.155C0.092473 7.35709 0.000118403 7.61186 0 7.875V11.25C0 13.248 0.8685 15.0457 2.25 16.281V34.875C2.25 35.1734 2.36853 35.4595 2.5795 35.6705C2.79048 35.8815 3.07663 36 3.375 36H32.625C32.9234 36 33.2095 35.8815 33.4205 35.6705C33.6315 35.4595 33.75 35.1734 33.75 34.875V16.281C35.1315 15.0435 36 13.248 36 11.25V7.8345C36 7.632 36 7.47 35.739 7.155L30.114 0.405C30.0085 0.278299 29.8764 0.176346 29.7271 0.106359C29.5778 0.0363717 29.4149 6.18302e-05 29.25 0H6.75ZM6.75 15.75C5.55653 15.75 4.41193 15.2759 3.56802 14.432C2.72411 13.5881 2.25 12.4435 2.25 11.25V9H11.25V11.25C11.25 12.4435 10.7759 13.5881 9.93198 14.432C9.08807 15.2759 7.94347 15.75 6.75 15.75ZM18 15.75C16.8065 15.75 15.6619 15.2759 14.818 14.432C13.9741 13.5881 13.5 12.4435 13.5 11.25V9H22.5V11.25C22.5 12.4435 22.0259 13.5881 21.182 14.432C20.3381 15.2759 19.1935 15.75 18 15.75ZM29.25 15.75C28.0565 15.75 26.9119 15.2759 26.068 14.432C25.2241 13.5881 24.75 12.4435 24.75 11.25V9H33.75V11.25C33.75 12.4435 33.2759 13.5881 32.432 14.432C31.5881 15.2759 30.4435 15.75 29.25 15.75ZM6.75 33.75H4.5V17.6175C5.91817 18.1202 7.46373 18.1341 8.89074 17.6571C10.3177 17.1801 11.5442 16.2395 12.375 14.985C12.9907 15.913 13.8267 16.674 14.8082 17.2001C15.7898 17.7262 16.8863 18.001 18 18C19.1139 18.0008 20.2106 17.7256 21.1921 17.1991C22.1737 16.6726 23.0095 15.9111 23.625 14.9828C24.4558 16.2372 25.6823 17.1778 27.1093 17.6548C28.5363 18.1319 30.0818 18.1179 31.5 17.6153V33.75H18V21.375C18 21.0766 17.8815 20.7905 17.6705 20.5795C17.4595 20.3685 17.1734 20.25 16.875 20.25H7.875C7.57663 20.25 7.29048 20.3685 7.0795 20.5795C6.86853 20.7905 6.75 21.0766 6.75 21.375V33.75ZM11.565 6.75H3.528L7.2765 2.25H13.0635L11.565 6.75ZM22.0635 6.75H13.9365L15.435 2.25H20.565L22.0635 6.75ZM24.435 6.75L22.9365 2.25H28.7235L32.4743 6.75H24.435ZM9 33.75V22.5H15.75V33.75H9Z" fill="white"/>
</svg>
